PathFileType	4	(X/Y/Z)	 2.2Hzlow3min.trc
DataRate	CameraRate	NumFrames	NumMarkers	Units	OrigDataRate	OrigDataStartFrame	OrigNumFrames
200	200	9	35	m	200	251	1000
Frame#	Time	C7			LSH			RSH			MAN			RASI			LASI			HIPR			HIPL			RPSI			LPSI			COX			RTHI1			RTHI2			RTHI3			RTHI4			RSHA1			RSHA2			RSHA3			RSHA4			RHEEL			RMET5			RMET1			RTOE			LTHI1			LTHI2			LTHI3			LTHI4			LSHA1			LSHA2			LSHA3			LSHA4			LHEEL			LMET5			LMET1			LTOE			
		X1	Y1	Z1	X2	Y2	Z2	X3	Y3	Z3	X4	Y4	Z4	X5	Y5	Z5	X6	Y6	Z6	X7	Y7	Z7	X8	Y8	Z8	X9	Y9	Z9	X10	Y10	Z10	X11	Y11	Z11	X12	Y12	Z12	X13	Y13	Z13	X14	Y14	Z14	X15	Y15	Z15	X16	Y16	Z16	X17	Y17	Z17	X18	Y18	Z18	X19	Y19	Z19	X20	Y20	Z20	X21	Y21	Z21	X22	Y22	Z22	X23	Y23	Z23	X24	Y24	Z24	X25	Y25	Z25	X26	Y26	Z26	X27	Y27	Z27	X28	Y28	Z28	X29	Y29	Z29	X30	Y30	Z30	X31	Y31	Z31	X32	Y32	Z32	X33	Y33	Z33	X34	Y34	Z34	X35	Y35	Z35	
251	1.2550	-0.256780	1.401529	-0.516349	-0.185616	1.405038	-0.687366	-0.207036	1.388897	-0.346283	-0.129964	1.363428	-0.512902	-0.097477	0.973212	-0.387121	-0.077290	0.971477	-0.610115	-0.159959	1.026319	-0.368392	-0.135652	1.014001	-0.646198	-0.250165	0.998164	-0.460307	-0.244243	0.994878	-0.566339	-0.251325	1.004820	-0.510043	-0.176587	0.766857	-0.335144	-0.156434	0.710779	-0.335233	-0.094265	0.730687	-0.331353	-0.108125	0.790653	-0.331943	-0.185830	0.393828	-0.333833	-0.205994	0.355650	-0.338264	-0.149947	0.334645	-0.350029	-0.134899	0.372155	-0.349449	-0.321340	0.129941	-0.403080	-0.196970	0.033732	-0.356278	-0.165676	0.038272	-0.426798	-0.141031	0.028561	-0.424326	-0.136176	0.758765	-0.681732	-0.108103	0.704366	-0.674184	-0.050519	0.729588	-0.660171	-0.069991	0.786824	-0.665739	-0.162920	0.359393	-0.676723	-0.182502	0.323840	-0.676152	-0.127115	0.301110	-0.657049	-0.113741	0.343130	-0.660877	-0.307551	0.123458	-0.632809	-0.175347	0.036717	-0.662554	-0.150345	0.037945	-0.594246	-0.127796	0.026975	-0.589767	
252	1.2600	-0.256457	1.396500	-0.516349	-0.185411	1.399968	-0.687228	-0.206805	1.383744	-0.346185	-0.129831	1.358055	-0.512874	-0.097982	0.968229	-0.387016	-0.077846	0.966422	-0.610128	-0.160605	1.021140	-0.368179	-0.136374	1.008632	-0.646272	-0.250839	0.992880	-0.460177	-0.244957	0.989466	-0.566272	-0.251340	0.999363	-0.509902	-0.176725	0.761408	-0.334921	-0.156290	0.705430	-0.334958	-0.094206	0.725649	-0.331176	-0.108381	0.785556	-0.331852	-0.185228	0.389209	-0.333738	-0.205799	0.351259	-0.338316	-0.149993	0.329757	-0.350419	-0.134573	0.367093	-0.349706	-0.323884	0.126375	-0.403505	-0.197496	0.032926	-0.355409	-0.166074	0.037968	-0.426682	-0.140951	0.028338	-0.424574	-0.135719	0.753306	-0.681703	-0.107354	0.699079	-0.674125	-0.049984	0.724604	-0.659834	-0.069771	0.781720	-0.665376	-0.162069	0.355159	-0.676495	-0.182093	0.319908	-0.675959	-0.127089	0.296541	-0.656541	-0.113187	0.338407	-0.660349	-0.309933	0.120511	-0.632889	-0.175992	0.036274	-0.663184	-0.150666	0.037873	-0.594595	-0.127810	0.026878	-0.589803	
253	1.2650	-0.259279	1.392843	-0.519301	-0.185221	1.394748	-0.687079	-0.206577	1.378428	-0.346087	-0.129680	1.352468	-0.512842	-0.098523	0.963066	-0.386898	-0.078384	0.961190	-0.610145	-0.161213	1.015748	-0.367933	-0.137091	1.003062	-0.646363	-0.251549	0.987450	-0.460036	-0.245686	0.983903	-0.566206	-0.251488	0.993790	-0.509756	-0.177003	0.755752	-0.334795	-0.156283	0.699869	-0.334754	-0.094313	0.720392	-0.330893	-0.108792	0.780243	-0.331693	-0.184689	0.384442	-0.333672	-0.205662	0.346738	-0.338431	-0.150089	0.324732	-0.350816	-0.134303	0.361887	-0.349937	-0.326449	0.122850	-0.403859	-0.198030	0.032330	-0.354747	-0.166510	0.037849	-0.426526	-0.140923	0.028188	-0.424597	-0.135400	0.747614	-0.681660	-0.106725	0.693551	-0.674134	-0.049541	0.719376	-0.659710	-0.069646	0.776388	-0.665176	-0.161339	0.350916	-0.676205	-0.181860	0.316022	-0.675723	-0.127258	0.291924	-0.656084	-0.112789	0.333629	-0.659843	-0.312303	0.117590	-0.633030	-0.176689	0.035909	-0.663709	-0.151026	0.037883	-0.594985	-0.127851	0.026804	-0.589936	
254	1.2700	-0.262262	1.388676	-0.515968	-0.185053	1.389394	-0.686928	-0.206352	1.372967	-0.345989	-0.129516	1.346725	-0.512803	-0.099105	0.957736	-0.386757	-0.078905	0.955789	-0.610178	-0.161790	1.010167	-0.367657	-0.137804	0.997306	-0.646464	-0.252302	0.981885	-0.459890	-0.246430	0.978201	-0.566143	-0.251770	0.988121	-0.509617	-0.177397	0.749912	-0.334764	-0.156390	0.694131	-0.334626	-0.094554	0.714938	-0.330516	-0.109329	0.774749	-0.331468	-0.184196	0.379577	-0.333665	-0.205552	0.342119	-0.338582	-0.150200	0.319639	-0.351198	-0.134059	0.356616	-0.350146	-0.328990	0.119363	-0.404177	-0.198669	0.031799	-0.354330	-0.167018	0.037792	-0.426373	-0.141003	0.028091	-0.424494	-0.135202	0.741698	-0.681584	-0.106195	0.687801	-0.674184	-0.049161	0.713935	-0.659807	-0.069592	0.770846	-0.665154	-0.160728	0.346755	-0.675854	-0.181772	0.312217	-0.675449	-0.127574	0.287306	-0.655720	-0.112505	0.328841	-0.659399	-0.314620	0.114616	-0.633179	-0.177457	0.035469	-0.664138	-0.151421	0.037907	-0.595341	-0.127911	0.026739	-0.590073	
255	1.2750	-0.264276	1.383744	-0.511629	-0.184914	1.383923	-0.686789	-0.206137	1.367379	-0.345889	-0.129350	1.340866	-0.512758	-0.099735	0.952259	-0.386583	-0.079402	0.950247	-0.610224	-0.162362	1.004410	-0.367344	-0.138511	0.991382	-0.646583	-0.253112	0.976187	-0.459744	-0.247185	0.972372	-0.566088	-0.252196	0.982367	-0.509493	-0.177890	0.743926	-0.334828	-0.156587	0.688246	-0.334574	-0.094898	0.709342	-0.330055	-0.109976	0.769118	-0.331169	-0.183710	0.374689	-0.333658	-0.205428	0.337465	-0.338736	-0.150284	0.314536	-0.351549	-0.133811	0.351348	-0.350335	-0.331435	0.115858	-0.404617	-0.199440	0.031261	-0.354076	-0.167583	0.037746	-0.426290	-0.141162	0.028019	-0.424372	-0.135101	0.735580	-0.681461	-0.105744	0.681852	-0.674243	-0.048819	0.708312	-0.660107	-0.069589	0.765123	-0.665310	-0.160220	0.342677	-0.675464	-0.181781	0.308487	-0.675150	-0.127958	0.282741	-0.655472	-0.112300	0.324100	-0.659044	-0.316878	0.111531	-0.633233	-0.178309	0.034893	-0.664528	-0.151811	0.037912	-0.595641	-0.127961	0.026677	-0.590185	
256	1.2800	-0.264185	1.377789	-0.511568	-0.184810	1.378361	-0.686681	-0.205941	1.361685	-0.345781	-0.129177	1.334907	-0.512710	-0.100415	0.946663	-0.386367	-0.079880	0.944587	-0.610282	-0.162938	0.998490	-0.366996	-0.139202	0.985310	-0.646723	-0.253980	0.970362	-0.459621	-0.247950	0.966434	-0.566038	-0.252775	0.976538	-0.509394	-0.178471	0.737851	-0.334965	-0.156856	0.682282	-0.334593	-0.095342	0.703693	-0.329559	-0.110719	0.763413	-0.330808	-0.183210	0.369833	-0.333650	-0.205261	0.332819	-0.338873	-0.150321	0.309485	-0.351875	-0.133537	0.346130	-0.350510	-0.333757	0.112317	-0.405203	-0.200305	0.030717	-0.353908	-0.168121	0.037699	-0.426268	-0.141319	0.027957	-0.424262	-0.135077	0.729289	-0.681282	-0.105352	0.675734	-0.674286	-0.048499	0.702537	-0.660574	-0.069619	0.759246	-0.665623	-0.159790	0.338682	-0.675065	-0.181835	0.304804	-0.674843	-0.128343	0.278243	-0.655337	-0.112133	0.319435	-0.658783	-0.319091	0.108307	-0.633123	-0.179223	0.034215	-0.664920	-0.152157	0.037911	-0.595919	-0.127978	0.026624	-0.590286	
257	1.2850	-0.264059	1.371890	-0.511714	-0.184747	1.372733	-0.686620	-0.205771	1.355902	-0.345658	-0.128952	1.328853	-0.512676	-0.101145	0.940981	-0.386100	-0.080338	0.938842	-0.610353	-0.163536	0.992439	-0.366609	-0.139882	0.979112	-0.646881	-0.254918	0.964431	-0.459523	-0.248722	0.960405	-0.565999	-0.253520	0.970671	-0.509316	-0.179135	0.731780	-0.335158	-0.157195	0.676333	-0.334664	-0.095895	0.698098	-0.329075	-0.111565	0.757717	-0.330394	-0.182675	0.365037	-0.333619	-0.205033	0.328224	-0.338986	-0.150295	0.304523	-0.352196	-0.133222	0.341016	-0.350690	-0.335925	0.108738	-0.405935	-0.201177	0.030188	-0.353789	-0.168569	0.037651	-0.426248	-0.141436	0.027905	-0.424138	-0.135114	0.722859	-0.681047	-0.105012	0.669481	-0.674301	-0.048197	0.696638	-0.661170	-0.069672	0.753244	-0.666061	-0.159428	0.334724	-0.674683	-0.181895	0.301115	-0.674542	-0.128682	0.273819	-0.655287	-0.111985	0.314850	-0.658615	-0.321269	0.104977	-0.632830	-0.180164	0.033500	-0.665326	-0.152466	0.037900	-0.596189	-0.127973	0.026581	-0.590387	
258	1.2900	-0.264025	1.365511	-0.511528	-0.184724	1.367069	-0.686623	-0.205638	1.350060	-0.345507	-0.128685	1.322783	-0.512653	-0.101897	0.935242	-0.385773	-0.080776	0.933040	-0.610431	-0.164178	0.986283	-0.366190	-0.140550	0.972816	-0.647058	-0.255922	0.958416	-0.459467	-0.249504	0.954313	-0.565972	-0.254313	0.964767	-0.509268	-0.179896	0.725796	-0.335396	-0.157616	0.670485	-0.334778	-0.096552	0.692612	-0.328599	-0.112518	0.752128	-0.329951	-0.182096	0.360321	-0.333582	-0.204731	0.323679	-0.339092	-0.150186	0.299670	-0.352540	-0.132852	0.336029	-0.350897	-0.337913	0.105182	-0.406823	-0.201988	0.029717	-0.353706	-0.168922	0.037587	-0.426219	-0.141507	0.027862	-0.424006	-0.135207	0.716352	-0.680771	-0.104734	0.663155	-0.674291	-0.047925	0.690654	-0.661856	-0.069757	0.747151	-0.666577	-0.159152	0.330749	-0.674353	-0.181962	0.297350	-0.674246	-0.128969	0.269449	-0.655260	-0.111859	0.310333	-0.658519	-0.323406	0.101617	-0.632361	-0.181115	0.032802	-0.665704	-0.152761	0.037887	-0.596437	-0.127963	0.026550	-0.590478	
259	1.2950	-0.000000	0.000000	-0.000000	-0.184740	1.361401	-0.686705	-0.205562	1.344193	-0.345314	-0.128356	1.316712	-0.512645	-0.102674	0.929501	-0.385383	-0.081196	0.927223	-0.610504	-0.164892	0.980059	-0.365736	-0.141196	0.966455	-0.647264	-0.256996	0.952347	-0.459455	-0.250297	0.948186	-0.565971	-0.255154	0.958866	-0.509258	-0.180757	0.720005	-0.335675	-0.158133	0.664841	-0.334925	-0.097341	0.687347	-0.328152	-0.113585	0.746732	-0.329496	-0.181463	0.355700	-0.333548	-0.204344	0.319208	-0.339231	-0.149987	0.294945	-0.352936	-0.132423	0.331171	-0.351146	-0.339690	0.101709	-0.407875	-0.202725	0.029329	-0.353678	-0.169201	0.037516	-0.426216	-0.141541	0.027821	-0.423890	-0.135372	0.709869	-0.680481	-0.104561	0.656825	-0.674280	-0.047731	0.684633	-0.662603	-0.069891	0.741031	-0.667129	-0.158970	0.326687	-0.674080	-0.182054	0.293460	-0.673938	-0.129221	0.265099	-0.655190	-0.111783	0.305854	-0.658455	-0.325467	0.098279	-0.631696	-0.182059	0.032168	-0.666007	-0.153051	0.037874	-0.596648	-0.127957	0.026526	-0.590566	
